<svg xmlns="http://www.w3.org/2000/svg">
 <g>
  <title>Logo Jhonny</title>
  <g stroke="null" id="svg_19">
   <g stroke="null" id="svg_20">
    <path stroke="null" id="svg_5" d="m109.506016,12.389528l-7.164337,-4.50299c-1.807586,-1.135004 -4.18939,-0.588725 -5.328357,1.219236l-2.82387,4.494584l13.705678,8.608229l2.826097,-4.4925c1.134644,-1.810111 0.593123,-4.194085 -1.215211,-5.326559m-39.705868,40.042014l13.706426,8.608139l22.339203,-35.562203l-13.712952,-8.610387l-22.332677,35.564446m-2.093655,10.936969l-0.302726,8.085477l7.153348,-3.783637l7.056149,-3.509856l-13.631686,-8.309798l-0.27508,7.517814l0,0l-0.000004,0z" stroke-width="1.5" fill="#007fff"/>
    <path stroke="null" id="svg_6" d="m17.665026,34.362111" opacity="0.5" stroke-width="1.5" fill="#000"/>
    <text stroke="null" transform="matrix(1.1167297439338595,0,0,1.1167297439338595,-192.37066574291651,-29.95669693436597) " font-weight="bold" xml:space="preserve" text-anchor="start" font-family="Helvetica, Arial, sans-serif" font-size="24" id="svg_8" y="88.012346" x="179.248633" stroke-width="0" fill="#333333">JHO    NNY</text>
    <text stroke="null" transform="matrix(1.1167297439338595,0,0,1.1167297439338595,-192.37066574291651,-29.95669693436597) " font-weight="bold" xml:space="preserve" text-anchor="start" font-family="'Courier New', Courier, monospace" font-size="14" id="svg_7" y="102.284086" x="253.584666" stroke-width="0" fill="#7f7f7f">DESIGN</text>
    <path stroke="null" id="svg_17" d="m8.663281,75.66634c0,0 63.351621,15.070821 58.349962,-3.993312c-7.82328,9.160485 -58.349962,3.993312 -58.349962,3.993312z" stroke-width="1.5" fill="#007fff"/>
    <path stroke="#007fff" id="svg_18" d="m17.004685,97.102989" opacity="0.5" fill-opacity="null" stroke-opacity="null" stroke-width="1.5" fill="none"/>
   </g>
  </g>
 </g>
</svg>
